<svg width="73" height="74" viewBox="0 0 73 74" fill="none" xmlns="http://www.w3.org/2000/svg">
<path d="M67.2847 23.2108H50.0852V5.75253C50.0852 3.12242 47.9555 0.97937 45.3178 0.97937H26.4967C23.8697 0.97937 21.7292 3.1116 21.7292 5.75253V15.1365H29.0696V8.32852H42.7341V43.743H36.7018V51.0922H50.0744V30.56H64.701V43.743H57.3823V51.0922H67.2739C69.9008 51.0922 72.0413 48.9599 72.0413 46.319V27.984C72.0413 25.3539 69.9117 23.2108 67.2847 23.2108Z" fill="#254EDB"/>
<path d="M42.7447 65.6714H29.0803V30.56H35.2206V23.2108H21.7399V43.7322H7.34033V30.56H14.5401V23.2108H4.76743C2.12967 23.2108 0 25.3539 0 27.984V46.319C0 48.9491 2.12967 51.0921 4.76743 51.0921H21.7399V68.2582C21.7399 70.8883 23.8696 73.0314 26.5074 73.0314H45.3284C47.9554 73.0314 50.0959 70.8991 50.0959 68.2582V58.3872H42.7555V65.6714H42.7447Z" fill="#254EDB"/>
</svg>
